<svg width="32" height="26" viewBox="0 0 32 26" fill="none" xmlns="http://www.w3.org/2000/svg">
<path d="M2.68453 5.61754L5.36907 17.6979H26.8453L29.4081 5.52377L22.1474 10.9866L16.0311 2.93301L9.39587 10.9866L2.68453 5.61754ZM20.6905 5.07163L20.5599 5.18382L20.796 5.20727L22.7502 7.71747L25.1566 5.63764L25.3911 5.66108L25.2872 5.52377L29.328 2.03058C29.5863 1.80771 29.9065 1.66905 30.2458 1.63317C30.5851 1.59729 30.9272 1.66589 31.2265 1.82979C31.5257 1.9937 31.7677 2.24508 31.9201 2.55031C32.0725 2.85554 31.9687 2.79655 31.92 3.13422L29.4081 20.4612L2.69949 20.3825L0.149096 3.13422C0.0984345 2.79467 -0.0952731 2.92995 0.0577939 2.62266C0.210861 2.31537 0.454675 2.06254 0.756215 1.89843C1.05775 1.73432 1.40245 1.66686 1.74361 1.70517C2.08477 1.74348 2.40591 1.88573 2.66354 2.11263L6.51677 5.50367L6.43304 5.60415L6.61557 5.59075L9.03367 7.71747L11.0633 5.21732L11.2458 5.20224L11.1453 5.11517L14.7139 0.729424C14.8728 0.534017 15.0738 0.37699 15.3019 0.270036C15.53 0.163082 15.7792 0.108958 16.0311 0.111694C16.283 0.11443 16.531 0.173956 16.7567 0.285839C16.9824 0.397721 17.1799 0.559078 17.3346 0.757892L20.6905 5.07163ZM2.5346 23.067H29.328L29.3749 24.2138C29.3749 24.658 29.1985 25.0839 28.8844 25.3979C28.5704 25.712 28.1444 25.8884 27.7003 25.8884H4.25607C3.81194 25.8884 3.386 25.712 3.07196 25.3979C2.75791 25.0839 2.58148 24.658 2.58148 24.2138L2.5346 23.067Z" fill="white"/>
</svg>
