<svg width="24" height="32" viewBox="0 0 24 32" fill="none" xmlns="http://www.w3.org/2000/svg">
<path d="M0.7 0.642857H1.2H22.8H23.3V1.14286V29.7143V30.697L22.5056 30.1185L19.1105 27.6458L22.3542 30.1165L22.3543 30.1167L23.5 30.9901L23.5 30.2861V30.286L23.5 30.2857V30.2857V30.2848L23.5 30.281L23.5 30.2664L23.5 30.2127L23.4999 30.0351C23.4998 29.8966 23.4998 29.7309 23.5 29.6229C23.5 29.6226 23.5 29.6224 23.5 29.6221M0.7 0.642857L24 1.14286V29.6229L23.5 29.6221M0.7 0.642857V1.14286V29.7143V30.7069L1.49761 30.1161L6.89761 26.1161L6.92641 26.0947L0.5 30.9905V30.8571V30.2857V29.6229V1.14286V1.14108V1.13928V1.13747V1.13566V1.13382V1.13198V1.13013V1.12826V1.12638V1.12449V1.12259V1.12068V1.11875V1.11682V1.11487V1.11291V1.11094V1.10896V1.10697V1.10496V1.10295V1.10092V1.09889V1.09684V1.09478V1.09271V1.09063V1.08854V1.08644V1.08433V1.0822V1.08007V1.07793V1.07578V1.07361V1.07144V1.06926V1.06706V1.06486V1.06265V1.06042V1.05819V1.05595V1.0537V1.05144V1.04916V1.04688V1.04459V1.04229V1.03999V1.03767V1.03534V1.033V1.03066V1.02831V1.02594V1.02357V1.02119V1.0188V1.0164V1.014V1.01158V1.00916V1.00673V1.00429V1.00184V0.99938V0.996915V0.994442V0.991961V0.989472V0.986975V0.984471V0.981958V0.979438V0.97691V0.974374V0.971831V0.96928V0.966722V0.964157V0.961584V0.959004V0.956417V0.953823V0.951221V0.948613V0.945998V0.943376V0.940747V0.938111V0.935469V0.93282V0.930165V0.927503V0.924834V0.922159V0.919478V0.916791V0.914097V0.911398V0.908692V0.90598V0.903262V0.900539V0.897809V0.895074V0.892333V0.889587V0.886835V0.884077V0.881314V0.878546V0.875772V0.872993V0.870208V0.867419V0.864625V0.861825V0.859021V0.856211V0.853397V0.850578V0.847754V0.844926V0.842093V0.839255V0.836414V0.833567V0.830716V0.827861V0.825002V0.822139V0.819271V0.8164V0.813524V0.810645V0.807762V0.804875V0.801984V0.79909V0.796192V0.79329V0.790385V0.787476V0.784564V0.781649V0.778731V0.775809V0.772885V0.769957V0.767026V0.764093V0.761156V0.758217V0.755275V0.75233V0.749382V0.746432V0.74348V0.740525V0.737568V0.734608V0.731646V0.728682V0.725716V0.722748V0.719778V0.716806V0.713831V0.710856V0.707878V0.704899V0.701918V0.698935V0.695951V0.692965V0.689978V0.68699V0.684001V0.68101V0.678018V0.675025V0.672031V0.669036V0.66604V0.663044V0.660046V0.657048V0.654049V0.65105V0.64805V0.645049V0.642049V0.639047V0.636046V0.633044V0.630042V0.62704V0.624038V0.621036V0.618035V0.615033V0.612031V0.60903V0.606029V0.603029V0.600029V0.597029V0.59403V0.591032V0.588034V0.585037V0.582041V0.579046V0.576052V0.573058V0.570066V0.567075V0.564085V0.561097V0.55811V0.555124V0.552139V0.549156V0.546175V0.543195V0.540217V0.537241V0.534266V0.531293V0.528323V0.525354V0.522387V0.519423V0.51646V0.5135V0.510542V0.507587V0.504634V0.501683V0.5H1.2H22.8H23.5M0.7 0.642857L23.5 0.5M23.5 29.6221L23.5 1.14286V1.14108V1.13928V1.13747V1.13566V1.13382V1.13198V1.13013V1.12826V1.12638V1.12449V1.12259V1.12068V1.11875V1.11682V1.11487V1.11291V1.11094V1.10896V1.10697V1.10496V1.10295V1.10092V1.09889V1.09684V1.09478V1.09271V1.09063V1.08854V1.08644V1.08433V1.0822V1.08007V1.07793V1.07578V1.07361V1.07144V1.06926V1.06706V1.06486V1.06265V1.06042V1.05819V1.05595V1.0537V1.05144V1.04916V1.04688V1.04459V1.04229V1.03999V1.03767V1.03534V1.033V1.03066V1.02831V1.02594V1.02357V1.02119V1.0188V1.0164V1.014V1.01158V1.00916V1.00673V1.00429V1.00184V0.99938V0.996915V0.994442V0.991961V0.989472V0.986975V0.984471V0.981958V0.979438V0.97691V0.974374V0.971831V0.96928V0.966722V0.964157V0.961584V0.959004V0.956417V0.953823V0.951221V0.948613V0.945998V0.943376V0.940747V0.938111V0.935469V0.93282V0.930165V0.927503V0.924834V0.922159V0.919478V0.916791V0.914097V0.911398V0.908692V0.90598V0.903262V0.900539V0.897809V0.895074V0.892333V0.889587V0.886835V0.884077V0.881314V0.878546V0.875772V0.872993V0.870208V0.867419V0.864625V0.861825V0.859021V0.856211V0.853397V0.850578V0.847754V0.844926V0.842093V0.839255V0.836414V0.833567V0.830716V0.827861V0.825002V0.822139V0.819271V0.8164V0.813524V0.810645V0.807762V0.804875V0.801984V0.79909V0.796192V0.79329V0.790385V0.787476V0.784564V0.781649V0.778731V0.775809V0.772885V0.769957V0.767026V0.764093V0.761156V0.758217V0.755275V0.75233V0.749382V0.746432V0.74348V0.740525V0.737568V0.734608V0.731646V0.728682V0.725716V0.722748V0.719778V0.716806V0.713831V0.710856V0.707878V0.704899V0.701918V0.698935V0.695951V0.692965V0.689978V0.68699V0.684001V0.68101V0.678018V0.675025V0.672031V0.669036V0.66604V0.663044V0.660046V0.657048V0.654049V0.65105V0.64805V0.645049V0.642049V0.639047V0.636046V0.633044V0.630042V0.62704V0.624038V0.621036V0.618035V0.615033V0.612031V0.60903V0.606029V0.603029V0.600029V0.597029V0.59403V0.591032V0.588034V0.585037V0.582041V0.579046V0.576052V0.573058V0.570066V0.567075V0.564085V0.561097V0.55811V0.555124V0.552139V0.549156V0.546175V0.543195V0.540217V0.537241V0.534266V0.531293V0.528323V0.525354V0.522387V0.519423V0.51646V0.5135V0.510542V0.507587V0.504634V0.501683V0.5M23.5 29.6221L23.5 0.5" fill="#FDFDFD" stroke="#FDFDFD"/>
</svg>
