<svg width="40" height="52" viewBox="0 0 40 52" fill="none" xmlns="http://www.w3.org/2000/svg">
<path d="M36.9419 17.0581L21.8084 1.43841L20.8411 0.470332C20.6207 0.251213 20.3227 0.128235 20.012 0.128235C19.7013 0.128235 19.4033 0.251213 19.1829 0.470332L2.49582 17.6071C2.19894 17.9119 2.12753 18.3713 2.31784 18.7519L2.82152 19.7593C2.96652 20.0493 3.26294 20.2325 3.58718 20.2325V20.2325C3.58718 20.2325 3.88365 20.2325 5.1983 20.2325H7.31454V31.8718H32.7094V20.2325H34.5516C34.9438 20.2325 35.756 20.2325 36.3243 20.2325C36.703 20.2325 37.0489 20.0185 37.2183 19.6797L37.6776 18.7611C37.8701 18.376 37.7947 17.911 37.4902 17.6066C37.3136 17.43 37.1162 17.2326 36.9419 17.0581ZM22.1035 29.7556H17.9206V21.2906H22.1035V29.7556ZM30.5931 18.1163L30.5931 29.7556H24.2444V20.9195C24.2444 20.0935 23.8252 19.4244 22.9998 19.4244H17.0242C16.1988 19.4244 15.7795 20.0935 15.7795 20.9195V29.7556H9.43078V18.1163L5.1983 18.1163L20.012 2.77353L27.9478 10.7094L34.8256 18.1163L30.5931 18.1163Z" fill="white"/>
<path d="M9.002 39.06V49H8.288V44.24H2.016V49H1.302V39.06H2.016V43.596H8.288V39.06H9.002ZM14.3295 49.14C13.8162 49.14 13.3402 49.042 12.9015 48.846C12.4722 48.65 12.0989 48.3793 11.7815 48.034C11.4642 47.6793 11.2169 47.2733 11.0395 46.816C10.8622 46.3587 10.7735 45.878 10.7735 45.374C10.7735 44.8607 10.8622 44.38 11.0395 43.932C11.2169 43.4747 11.4642 43.0733 11.7815 42.728C12.1082 42.3733 12.4862 42.098 12.9155 41.902C13.3542 41.6967 13.8255 41.594 14.3295 41.594C14.8335 41.594 15.3002 41.6967 15.7295 41.902C16.1589 42.098 16.5369 42.3733 16.8635 42.728C17.1902 43.0733 17.4422 43.4747 17.6195 43.932C17.7969 44.38 17.8855 44.8607 17.8855 45.374C17.8855 45.878 17.7969 46.3587 17.6195 46.816C17.4422 47.2733 17.1902 47.6793 16.8635 48.034C16.5462 48.3793 16.1682 48.65 15.7295 48.846C15.3002 49.042 14.8335 49.14 14.3295 49.14ZM11.4735 45.402C11.4735 45.9713 11.5995 46.494 11.8515 46.97C12.1129 47.4367 12.4582 47.81 12.8875 48.09C13.3169 48.37 13.7929 48.51 14.3155 48.51C14.8382 48.51 15.3142 48.37 15.7435 48.09C16.1822 47.8007 16.5275 47.418 16.7795 46.942C17.0409 46.4567 17.1715 45.9293 17.1715 45.36C17.1715 44.7907 17.0409 44.268 16.7795 43.792C16.5275 43.316 16.1822 42.938 15.7435 42.658C15.3142 42.3687 14.8429 42.224 14.3295 42.224C13.8069 42.224 13.3309 42.3687 12.9015 42.658C12.4722 42.9473 12.1269 43.33 11.8655 43.806C11.6042 44.282 11.4735 44.814 11.4735 45.402ZM30.2587 49H29.5587V44.94C29.5587 44.016 29.414 43.3347 29.1247 42.896C28.8447 42.4573 28.4107 42.238 27.8227 42.238C27.2254 42.238 26.6934 42.4527 26.2267 42.882C25.7694 43.302 25.4474 43.8433 25.2607 44.506V49H24.5607V44.94C24.5607 44.0067 24.4207 43.3253 24.1407 42.896C23.8607 42.4573 23.4267 42.238 22.8387 42.238C22.2414 42.238 21.7094 42.448 21.2427 42.868C20.7854 43.2787 20.4587 43.82 20.2627 44.492V49H19.5627V41.72H20.2207V43.456C20.5287 42.8587 20.9254 42.4013 21.4107 42.084C21.896 41.7573 22.428 41.594 23.0067 41.594C23.6134 41.594 24.108 41.776 24.4907 42.14C24.8827 42.4947 25.116 42.9707 25.1907 43.568C25.536 42.9147 25.9467 42.4247 26.4227 42.098C26.8987 41.762 27.44 41.594 28.0467 41.594C28.448 41.594 28.784 41.6687 29.0547 41.818C29.3347 41.958 29.5634 42.168 29.7407 42.448C29.9274 42.7187 30.058 43.0547 30.1327 43.456C30.2167 43.8573 30.2587 44.31 30.2587 44.814V49ZM35.4673 49.14C34.9539 49.14 34.4779 49.042 34.0393 48.846C33.6006 48.6407 33.2179 48.3653 32.8913 48.02C32.5739 47.6653 32.3219 47.2593 32.1353 46.802C31.9579 46.3353 31.8693 45.8453 31.8693 45.332C31.8693 44.6413 32.0233 44.016 32.3313 43.456C32.6393 42.896 33.0639 42.448 33.6053 42.112C34.1466 41.7667 34.7533 41.594 35.4253 41.594C36.1159 41.594 36.7273 41.7667 37.2593 42.112C37.7913 42.4573 38.2113 42.9147 38.5193 43.484C38.8366 44.044 38.9952 44.66 38.9952 45.332C38.9952 45.388 38.9952 45.444 38.9952 45.5C38.9952 45.556 38.9906 45.6027 38.9813 45.64H32.5973C32.6346 46.1907 32.7886 46.69 33.0593 47.138C33.3299 47.586 33.6753 47.9407 34.0953 48.202C34.5246 48.454 34.9913 48.58 35.4953 48.58C35.9993 48.58 36.4753 48.4493 36.9233 48.188C37.3713 47.9267 37.6839 47.5907 37.8613 47.18L38.4772 47.348C38.3373 47.6933 38.1133 48.0013 37.8053 48.272C37.5066 48.5427 37.1519 48.7573 36.7413 48.916C36.3399 49.0653 35.9153 49.14 35.4673 49.14ZM32.5693 45.094H38.3233C38.2859 44.5247 38.1366 44.0207 37.8753 43.582C37.6139 43.1433 37.2686 42.798 36.8393 42.546C36.4193 42.294 35.9526 42.168 35.4393 42.168C34.9259 42.168 34.4593 42.294 34.0393 42.546C33.6193 42.798 33.2786 43.1433 33.0173 43.582C32.7559 44.0207 32.6066 44.5247 32.5693 45.094Z" fill="white"/>
</svg>
