<svg width="57" height="52" viewBox="0 0 57 52" fill="none" xmlns="http://www.w3.org/2000/svg">
<path d="M7.392 46.792C7.392 47.208 7.288 47.584 7.08 47.92C6.88 48.248 6.604 48.512 6.252 48.712C5.908 48.904 5.524 49 5.1 49H1.116V40.48H5.088C5.488 40.48 5.832 40.588 6.12 40.804C6.416 41.012 6.64 41.284 6.792 41.62C6.952 41.948 7.032 42.292 7.032 42.652C7.032 43.076 6.924 43.472 6.708 43.84C6.492 44.2 6.192 44.464 5.808 44.632C6.296 44.776 6.68 45.048 6.96 45.448C7.248 45.84 7.392 46.288 7.392 46.792ZM6.78 46.708C6.78 46.404 6.708 46.12 6.564 45.856C6.428 45.592 6.24 45.376 6 45.208C5.76 45.04 5.488 44.956 5.184 44.956H1.728V48.448H5.1C5.412 48.448 5.696 48.368 5.952 48.208C6.208 48.04 6.408 47.824 6.552 47.56C6.704 47.288 6.78 47.004 6.78 46.708ZM1.728 41.032V44.44H4.848C5.16 44.44 5.432 44.36 5.664 44.2C5.904 44.032 6.092 43.82 6.228 43.564C6.364 43.3 6.432 43.024 6.432 42.736C6.432 42.424 6.368 42.14 6.24 41.884C6.112 41.628 5.932 41.424 5.7 41.272C5.476 41.112 5.216 41.032 4.92 41.032H1.728ZM11.4973 49.12C11.0573 49.12 10.6493 49.036 10.2733 48.868C9.90531 48.7 9.58531 48.468 9.31331 48.172C9.04131 47.868 8.82931 47.52 8.67731 47.128C8.52531 46.736 8.44931 46.324 8.44931 45.892C8.44931 45.452 8.52531 45.04 8.67731 44.656C8.82931 44.264 9.04131 43.92 9.31331 43.624C9.59331 43.32 9.91731 43.084 10.2853 42.916C10.6613 42.74 11.0653 42.652 11.4973 42.652C11.9293 42.652 12.3293 42.74 12.6973 42.916C13.0653 43.084 13.3893 43.32 13.6693 43.624C13.9493 43.92 14.1653 44.264 14.3173 44.656C14.4693 45.04 14.5453 45.452 14.5453 45.892C14.5453 46.324 14.4693 46.736 14.3173 47.128C14.1653 47.52 13.9493 47.868 13.6693 48.172C13.3973 48.468 13.0733 48.7 12.6973 48.868C12.3293 49.036 11.9293 49.12 11.4973 49.12ZM9.04931 45.916C9.04931 46.404 9.15731 46.852 9.37331 47.26C9.59731 47.66 9.89331 47.98 10.2613 48.22C10.6293 48.46 11.0373 48.58 11.4853 48.58C11.9333 48.58 12.3413 48.46 12.7093 48.22C13.0853 47.972 13.3813 47.644 13.5973 47.236C13.8213 46.82 13.9333 46.368 13.9333 45.88C13.9333 45.392 13.8213 44.944 13.5973 44.536C13.3813 44.128 13.0853 43.804 12.7093 43.564C12.3413 43.316 11.9373 43.192 11.4973 43.192C11.0493 43.192 10.6413 43.316 10.2733 43.564C9.90531 43.812 9.60931 44.14 9.38531 44.548C9.16131 44.956 9.04931 45.412 9.04931 45.916ZM18.5989 49.12C18.1589 49.12 17.7509 49.036 17.3749 48.868C17.0069 48.7 16.6869 48.468 16.4149 48.172C16.1429 47.868 15.9309 47.52 15.7789 47.128C15.6269 46.736 15.5509 46.324 15.5509 45.892C15.5509 45.452 15.6269 45.04 15.7789 44.656C15.9309 44.264 16.1429 43.92 16.4149 43.624C16.6949 43.32 17.0189 43.084 17.3869 42.916C17.7629 42.74 18.1669 42.652 18.5989 42.652C19.0309 42.652 19.4309 42.74 19.7989 42.916C20.1669 43.084 20.4909 43.32 20.7709 43.624C21.0509 43.92 21.2669 44.264 21.4189 44.656C21.5709 45.04 21.6469 45.452 21.6469 45.892C21.6469 46.324 21.5709 46.736 21.4189 47.128C21.2669 47.52 21.0509 47.868 20.7709 48.172C20.4989 48.468 20.1749 48.7 19.7989 48.868C19.4309 49.036 19.0309 49.12 18.5989 49.12ZM16.1509 45.916C16.1509 46.404 16.2589 46.852 16.4749 47.26C16.6989 47.66 16.9949 47.98 17.3629 48.22C17.7309 48.46 18.1389 48.58 18.5869 48.58C19.0349 48.58 19.4429 48.46 19.8109 48.22C20.1869 47.972 20.4829 47.644 20.6989 47.236C20.9229 46.82 21.0349 46.368 21.0349 45.88C21.0349 45.392 20.9229 44.944 20.6989 44.536C20.4829 44.128 20.1869 43.804 19.8109 43.564C19.4429 43.316 19.0389 43.192 18.5989 43.192C18.1509 43.192 17.7429 43.316 17.3749 43.564C17.0069 43.812 16.7109 44.14 16.4869 44.548C16.2629 44.956 16.1509 45.412 16.1509 45.916ZM27.5964 49L25.1604 45.664L23.6844 47.02V49H23.0844V40.24H23.6844V46.348L27.4884 42.772H28.1724L25.5684 45.304L28.2564 49H27.5964ZM38.522 49H37.922V45.52C37.922 44.728 37.798 44.144 37.55 43.768C37.31 43.392 36.938 43.204 36.434 43.204C35.922 43.204 35.466 43.388 35.066 43.756C34.674 44.116 34.398 44.58 34.238 45.148V49H33.638V45.52C33.638 44.72 33.518 44.136 33.278 43.768C33.038 43.392 32.666 43.204 32.162 43.204C31.65 43.204 31.194 43.384 30.794 43.744C30.402 44.096 30.122 44.56 29.954 45.136V49H29.354V42.76H29.918V44.248C30.182 43.736 30.522 43.344 30.938 43.072C31.354 42.792 31.81 42.652 32.306 42.652C32.826 42.652 33.25 42.808 33.578 43.12C33.914 43.424 34.114 43.832 34.178 44.344C34.474 43.784 34.826 43.364 35.234 43.084C35.642 42.796 36.106 42.652 36.626 42.652C36.97 42.652 37.258 42.716 37.49 42.844C37.73 42.964 37.926 43.144 38.078 43.384C38.238 43.616 38.35 43.904 38.414 44.248C38.486 44.592 38.522 44.98 38.522 45.412V49ZM39.8184 47.2C39.8184 46.824 39.9304 46.5 40.1544 46.228C40.3784 45.948 40.6864 45.732 41.0784 45.58C41.4704 45.42 41.9224 45.34 42.4344 45.34C42.7544 45.34 43.0864 45.368 43.4304 45.424C43.7744 45.48 44.0824 45.556 44.3544 45.652V45.064C44.3544 44.488 44.1864 44.028 43.8504 43.684C43.5224 43.34 43.0664 43.168 42.4824 43.168C42.1704 43.168 41.8464 43.232 41.5104 43.36C41.1744 43.488 40.8304 43.672 40.4784 43.912L40.2264 43.48C40.6344 43.208 41.0264 43.004 41.4024 42.868C41.7864 42.724 42.1664 42.652 42.5424 42.652C43.2864 42.652 43.8744 42.872 44.3064 43.312C44.7384 43.752 44.9544 44.352 44.9544 45.112V48.208C44.9544 48.304 44.9744 48.376 45.0144 48.424C45.0624 48.472 45.1304 48.5 45.2184 48.508V49C45.1464 49.008 45.0864 49.012 45.0384 49.012C44.9904 49.012 44.9504 49.012 44.9184 49.012C44.7664 48.988 44.6464 48.924 44.5584 48.82C44.4784 48.716 44.4344 48.6 44.4264 48.472V47.98C44.1384 48.34 43.7664 48.62 43.3104 48.82C42.8624 49.02 42.3904 49.12 41.8944 49.12C41.5024 49.12 41.1464 49.036 40.8264 48.868C40.5144 48.7 40.2664 48.472 40.0824 48.184C39.9064 47.888 39.8184 47.56 39.8184 47.2ZM44.1144 47.716C44.1944 47.612 44.2544 47.512 44.2944 47.416C44.3344 47.32 44.3544 47.232 44.3544 47.152V46.12C44.0664 46.008 43.7664 45.924 43.4544 45.868C43.1424 45.812 42.8224 45.784 42.4944 45.784C41.8704 45.784 41.3624 45.908 40.9704 46.156C40.5864 46.404 40.3944 46.74 40.3944 47.164C40.3944 47.428 40.4624 47.672 40.5984 47.896C40.7344 48.12 40.9224 48.3 41.1624 48.436C41.4104 48.572 41.6944 48.64 42.0144 48.64C42.4624 48.64 42.8744 48.556 43.2504 48.388C43.6344 48.212 43.9224 47.988 44.1144 47.716ZM49.7318 43.3C49.1718 43.316 48.6798 43.484 48.2558 43.804C47.8398 44.116 47.5478 44.548 47.3798 45.1V49H46.7798V42.76H47.3558V44.296C47.5718 43.856 47.8598 43.5 48.2198 43.228C48.5798 42.948 48.9598 42.788 49.3598 42.748C49.4398 42.74 49.5118 42.736 49.5758 42.736C49.6398 42.736 49.6918 42.736 49.7318 42.736V43.3ZM55.3816 49L52.9456 45.664L51.4696 47.02V49H50.8696V40.24H51.4696V46.348L55.2736 42.772H55.9576L53.3536 45.304L56.0416 49H55.3816Z" fill="white"/>
<path d="M40.25 0.621796V0.871796V0.871834V0.871882V0.871949V0.872035V0.872139V0.872263V0.872405V0.872567V0.872746V0.872945V0.873162V0.873397V0.873651V0.873923V0.874214V0.874523V0.87485V0.875195V0.875558V0.875939V0.876338V0.876755V0.877189V0.877642V0.878112V0.8786V0.879105V0.879628V0.880168V0.880726V0.8813V0.881893V0.882502V0.883128V0.883772V0.884433V0.88511V0.885804V0.886516V0.887244V0.887988V0.88875V0.889527V0.890322V0.891133V0.89196V0.892803V0.893663V0.894539V0.895431V0.89634V0.897264V0.898204V0.89916V0.900132V0.90112V0.902124V0.903143V0.904177V0.905228V0.906293V0.907374V0.908471V0.909582V0.910709V0.911852V0.913009V0.914181V0.915368V0.91657V0.917787V0.919019V0.920266V0.921527V0.922803V0.924093V0.925398V0.926717V0.92805V0.929398V0.93076V0.932137V0.933527V0.934932V0.93635V0.937782V0.939229V0.940689V0.942162V0.94365V0.945151V0.946666V0.948194V0.949735V0.95129V0.952859V0.95444V0.956035V0.957643V0.959264V0.960898V0.962544V0.964204V0.965877V0.967562V0.96926V0.970971V0.972694V0.97443V0.976178V0.977939V0.979711V0.981497V0.983294V0.985104V0.986925V0.988759V0.990605V0.992462V0.994331V0.996212V0.998105V1.00001V1.00193V1.00385V1.00579V1.00774V1.0097V1.01168V1.01366V1.01566V1.01766V1.01968V1.02171V1.02375V1.0258V1.02786V1.02993V1.03202V1.03411V1.03621V1.03833V1.04045V1.04259V1.04473V1.04689V1.04905V1.05123V1.05341V1.05561V1.05782V1.06003V1.06226V1.06449V1.06674V1.06899V1.07126V1.07353V1.07581V1.0781V1.08041V1.08272V1.08504V1.08737V1.08971V1.09205V1.09441V1.09677V1.09915V1.10153V1.10392V1.10632V1.10873V1.11115V1.11357V1.11601V1.11845V1.1209V1.12336V1.12583V1.1283V1.13078V1.13328V1.13577V1.13828V1.1408V1.14332V1.14585V1.14839V1.15093V1.15348V1.15604V1.15861V1.16118V1.16377V1.16635V1.16895V1.17155V1.17416V1.17678V1.1794V1.18204V1.18467V1.18732V1.18997V1.19262V1.19529V1.19796V1.20063V1.20332V1.20601V1.2087V1.2114V1.21411V1.21682V1.21954V1.22227V1.225V1.22773V1.23048V1.23322V1.23598V1.23874V1.2415V1.24427V1.24705V1.24983V1.25261V1.2554V1.2582V1.261V1.26381V1.26662V1.26943V1.27225V1.27508V1.27791V1.28074V1.28358V1.28642V1.28927V1.29212V1.29498V1.29784V1.3007V1.30357V1.30644V1.30932V1.3122V1.31508V1.31797V1.32086V1.32376V1.32666V1.32956V1.33247V1.33538V1.33829V1.3412V1.34412V1.34705V1.34997V1.3529V1.35583V1.35877V1.3617V1.36464V1.36759V1.37053V1.37348V1.37643V1.37938V1.38234V1.3853V1.38826V1.39122V1.39418V1.39715V1.40012V1.40309V1.40606V1.40904V1.41201V1.41499V1.41797V1.42095V1.42393V1.42692V1.42991V1.43289V1.43588V1.43887V1.44186V1.44485V1.44785V1.45084V1.45384V1.45683V1.45983V1.46283V1.46583V1.46882V1.47182V1.47482V1.47782V1.48083V1.48383V1.48683V1.48983V1.49283V1.49583V1.49884V1.50184V1.50484V1.50784V1.51084V1.51384V1.51684V1.51985V1.52285V1.52584V1.52884V1.53184V1.53484V1.53784V1.54083V1.54383V1.54682V1.54981V1.55281V1.5558V1.55879V1.56177V1.56476V1.56775V1.57073V1.57371V1.57669V1.57967V1.58265V1.58563V1.5886V1.59157V1.59454V1.59751V1.60048V1.60344V1.6064V1.60936V1.61232V1.61528V1.61823V1.62118V1.62413V1.62707V1.63001V1.63295V1.63589V1.63882V1.64175V1.64468V1.64761V1.65053V1.65344V1.65636V1.65927V1.66218V1.66509V1.66799V1.67089V1.67378V1.67667V1.67956V1.68244V1.68532V1.6882V1.69107V1.69393V1.6968V1.69966V1.70251V1.70536V1.70821V1.71105V1.71389V1.71672V1.71955V1.72237V1.72519V1.72801V1.73082V1.73362V1.73642V1.73921V1.742V1.74479V1.74757V1.75034V1.75311V1.75587V1.75863V1.76138V1.76413V1.76687V1.76961V1.77233V1.77506V1.77778V1.78049V1.78319V1.78589V1.78859V1.79127V1.79396V1.79663V1.7993V1.80196V1.80462V1.80726V1.80991V1.81254V1.81517V1.81779V1.82041V1.82302V1.82562V1.82821V1.8308V1.83338V1.83595V1.83852V1.84108V1.84363V1.84617V1.84871V1.85123V1.85375V1.85627V1.85877V1.86127V1.86376V1.86624V1.86871V1.87118V1.87363V1.87608V1.87852V1.88095V1.88338V1.88579V1.8882V1.8906V1.89299V1.89537V1.89774V1.9001V1.90245V1.9048V1.90714V1.90946V1.91178V1.91409V1.91639V1.91868V1.92096V1.92323V1.92549V1.92774V1.92999V1.93222V1.93444V1.93666V1.93886V1.94105V1.94324V1.94541V1.94757V1.94973V1.95187V1.954V1.95612V1.95823V1.96034V1.96243V1.96451V1.96657V1.96863V1.97068V1.97272V1.97474V1.97676V1.97876V1.98075V1.98274V1.98471V1.98667V1.98861V1.99055V1.99247V1.99439V1.99629V1.99818V2.00006V2.00192V2.00378V2.00562V2.00745V2.00927V2.01108V2.01287V2.01465V30.4947V30.495C40.2498 30.6023 40.2498 30.7678 40.2499 30.9067L40.25 31.084L40.25 31.1377L40.25 31.1523L40.25 31.156V31.157V31.1573V31.1573V31.1573L40.25 31.1575L40.25 32.3004V32.8718V33.3768L39.8484 33.0706L37.8997 31.585L37.8996 31.5849L28.5975 24.4994L40.25 0.621796ZM40.25 0.621796H40H40H39.9998H39.9994H39.9986H39.9975H39.996H39.9943H39.9923H39.99H39.9874H39.9845H39.9814H39.9779H39.9761H39.9752H39.9742H39.9702H39.966H39.9615H39.9517H39.9409H39.9352H39.9292H39.923H39.9214H39.9198H39.9182H39.9165H39.903H39.8959H39.8886H39.8733H39.8654H39.8634H39.8613H39.8573H39.7042H39.6603H39.6547H39.6519H39.6491H39.6377H39.6147H39.5676H39.5617H39.5587H39.5557H39.5497H39.5436H39.5193H38.8H17.2H16.4807H16.4685H16.4564H16.4443H16.4413H16.4383H16.4324H16.3853H16.3623H16.3509H16.3481H16.3453H16.3397H16.2958H16.1427H16.1387H16.1366H16.1346H16.1267H16.1115H16.097H16.0901H16.0868H16.0851H16.0835H16.0818H16.0802H16.0786H16.077H16.0708H16.0591H16.0483H16.0385H16.034H16.0298H16.0258H16.0239H16.023H16.0221H16.0186H16.0155H16.0126H16.01H16.0077H16.0057H16.0048H16.004H16.0025H16.0014H16.0006H16.0002H16.0001H16H16L16 0.871796M40.25 0.621796L28 24.0435M28 24.0435L27.8571 24.1527C27.6965 24.2753 27.5091 24.4183 27.4025 24.4994L16.1515 33.0707L15.75 33.3765V32.8718V31.7289V31.1575V30.4947V2.01465V2.01287V2.01108V2.00927V2.00745V2.00562V2.00378V2.00192V2.00006V1.99818V1.99629V1.99439V1.99247V1.99055V1.98861V1.98667V1.98471V1.98274V1.98075V1.97876V1.97676V1.97474V1.97272V1.97068V1.96863V1.96657V1.96451V1.96243V1.96034V1.95823V1.95612V1.954V1.95187V1.94973V1.94757V1.94541V1.94324V1.94105V1.93886V1.93666V1.93444V1.93222V1.92999V1.92774V1.92549V1.92323V1.92096V1.91868V1.91639V1.91409V1.91178V1.90946V1.90714V1.9048V1.90245V1.9001V1.89774V1.89537V1.89299V1.8906V1.8882V1.88579V1.88338V1.88095V1.87852V1.87608V1.87363V1.87118V1.86871V1.86624V1.86376V1.86127V1.85877V1.85627V1.85375V1.85123V1.84871V1.84617V1.84363V1.84108V1.83852V1.83595V1.83338V1.8308V1.82821V1.82562V1.82302V1.82041V1.81779V1.81517V1.81254V1.80991V1.80726V1.80462V1.80196V1.7993V1.79663V1.79396V1.79127V1.78859V1.78589V1.78319V1.78049V1.77778V1.77506V1.77233V1.76961V1.76687V1.76413V1.76138V1.75863V1.75587V1.75311V1.75034V1.74757V1.74479V1.742V1.73921V1.73642V1.73362V1.73082V1.72801V1.72519V1.72237V1.71955V1.71672V1.71389V1.71105V1.70821V1.70536V1.70251V1.69966V1.6968V1.69393V1.69107V1.6882V1.68532V1.68244V1.67956V1.67667V1.67378V1.67089V1.66799V1.66509V1.66218V1.65927V1.65636V1.65344V1.65053V1.64761V1.64468V1.64175V1.63882V1.63589V1.63295V1.63001V1.62707V1.62413V1.62118V1.61823V1.61528V1.61232V1.60936V1.6064V1.60344V1.60048V1.59751V1.59454V1.59157V1.5886V1.58563V1.58265V1.57967V1.57669V1.57371V1.57073V1.56775V1.56476V1.56177V1.55879V1.5558V1.55281V1.54981V1.54682V1.54383V1.54083V1.53784V1.53484V1.53184V1.52884V1.52584V1.52285V1.51985V1.51684V1.51384V1.51084V1.50784V1.50484V1.50184V1.49884V1.49583V1.49283V1.48983V1.48683V1.48383V1.48083V1.47782V1.47482V1.47182V1.46882V1.46583V1.46283V1.45983V1.45683V1.45384V1.45084V1.44785V1.44485V1.44186V1.43887V1.43588V1.43289V1.42991V1.42692V1.42393V1.42095V1.41797V1.41499V1.41201V1.40904V1.40606V1.40309V1.40012V1.39715V1.39418V1.39122V1.38826V1.3853V1.38234V1.37938V1.37643V1.37348V1.37053V1.36759V1.36464V1.3617V1.35877V1.35583V1.3529V1.34997V1.34705V1.34412V1.3412V1.33829V1.33538V1.33247V1.32956V1.32666V1.32376V1.32086V1.31797V1.31508V1.3122V1.30932V1.30644V1.30357V1.3007V1.29784V1.29498V1.29212V1.28927V1.28642V1.28358V1.28074V1.27791V1.27508V1.27225V1.26943V1.26662V1.26381V1.261V1.2582V1.2554V1.25261V1.24983V1.24705V1.24427V1.2415V1.23874V1.23598V1.23322V1.23048V1.22773V1.225V1.22227V1.21954V1.21682V1.21411V1.2114V1.2087V1.20601V1.20332V1.20063V1.19796V1.19529V1.19262V1.18997V1.18732V1.18467V1.18204V1.1794V1.17678V1.17416V1.17155V1.16895V1.16635V1.16377V1.16118V1.15861V1.15604V1.15348V1.15093V1.14839V1.14585V1.14332V1.1408V1.13828V1.13577V1.13328V1.13078V1.1283V1.12583V1.12336V1.1209V1.11845V1.11601V1.11357V1.11115V1.10873V1.10632V1.10392V1.10153V1.09915V1.09677V1.09441V1.09205V1.08971V1.08737V1.08504V1.08272V1.08041V1.0781V1.07581V1.07353V1.07126V1.06899V1.06674V1.06449V1.06226V1.06003V1.05782V1.05561V1.05341V1.05123V1.04905V1.04689V1.04473V1.04259V1.04045V1.03833V1.03621V1.03411V1.03202V1.02993V1.02786V1.0258V1.02375V1.02171V1.01968V1.01766V1.01566V1.01366V1.01168V1.0097V1.00774V1.00579V1.00385V1.00193V1.00001V0.998105V0.996212V0.994331V0.992462V0.990605V0.988759V0.986925V0.985104V0.983294V0.981497V0.979711V0.977939V0.976178V0.97443V0.972694V0.970971V0.96926V0.967562V0.965877V0.964204V0.962544V0.960898V0.959264V0.957643V0.956035V0.95444V0.952859V0.95129V0.949735V0.948194V0.946666V0.945151V0.94365V0.942162V0.940689V0.939229V0.937782V0.93635V0.934932V0.933527V0.932137V0.93076V0.929398V0.92805V0.926717V0.925398V0.924093V0.922803V0.921527V0.920266V0.919019V0.917787V0.91657V0.915368V0.914181V0.913009V0.911852V0.910709V0.909582V0.908471V0.907374V0.906293V0.905228V0.904177V0.903143V0.902124V0.90112V0.900132V0.89916V0.898204V0.897264V0.89634V0.895431V0.894539V0.893663V0.892803V0.89196V0.891133V0.890322V0.889527V0.88875V0.887988V0.887244V0.886516V0.885804V0.88511V0.884433V0.883772V0.883128V0.882502V0.881893V0.8813V0.880726V0.880168V0.879628V0.879105V0.8786V0.878112V0.877642V0.877189V0.876755V0.876338V0.875939V0.875558V0.875195V0.87485V0.874523V0.874214V0.873923V0.873651V0.873397V0.873162V0.872945V0.872746V0.872567V0.872405V0.872263V0.872139V0.872035V0.871949V0.871882V0.871834V0.871805L16 0.871796M28 24.0435L28.1429 24.1527C28.3035 24.2753 28.4907 24.4182 28.5973 24.4992L28 24.0435ZM16 0.871796H15.75V0.621796H16V0.871796ZM28.1502 22.3863L28.0011 22.2741L27.8512 22.3852L22.4512 26.3852L17.45 30.0898V2.26465H38.55V30.0947L33.8487 26.6708L33.8472 26.6697L28.1502 22.3863ZM40 30.4947C39.9997 30.7097 40 31.1575 40 31.1575V30.4947Z" fill="#FDFDFD" stroke="#FDFDFD" stroke-width="0.5"/>
</svg>
