<svg width="53" height="56" viewBox="0 0 53 56" fill="none" xmlns="http://www.w3.org/2000/svg">
<path d="M36.2821 20.6605C36.3577 20.5847 36.4499 20.5274 36.5514 20.4934C36.9471 20.3614 37.3066 20.1392 37.6015 19.8442C37.6015 19.8442 37.6015 19.8442 37.6015 19.8442L42.6258 14.8199L42.6259 14.8198C42.8654 14.5801 43 14.2552 43 13.9164C43 13.5776 42.8654 13.2526 42.6259 13.013L42.6258 13.0129L39.4767 9.86382C39.476 9.8631 39.4753 9.86239 39.4746 9.86167C39.2481 9.63426 38.9442 9.5005 38.6235 9.48709C38.3018 9.47363 37.9868 9.58229 37.7418 9.79125L37.7386 9.79403C37.2925 10.1778 36.7179 10.3791 36.1299 10.3576C35.5419 10.3361 34.9838 10.0935 34.567 9.67837C34.1515 9.26226 33.9083 8.70473 33.8858 8.1171C33.8634 7.529 34.0638 6.95411 34.4469 6.50739L34.4487 6.5053C34.6577 6.26029 34.7664 5.94535 34.7529 5.62362C34.7395 5.30301 34.6058 4.99926 34.3786 4.77281C34.3778 4.77201 34.377 4.77121 34.3762 4.77041L31.2275 1.61819L31.227 1.61763C30.9873 1.37811 30.6624 1.24356 30.3236 1.24356C29.9848 1.24356 29.6599 1.37811 29.4202 1.61762L29.4201 1.61779L24.3958 6.64201C24.3958 6.64204 24.3958 6.64207 24.3957 6.64211C24.1005 6.93726 23.8782 7.29714 23.7462 7.69321L23.7457 7.69493C23.712 7.7967 23.655 7.88923 23.5793 7.96516C23.5038 8.04099 23.4116 8.09819 23.3101 8.13224C22.9146 8.26419 22.5551 8.48618 22.26 8.78072L22.2594 8.78132L9.37431 21.6635L9.37406 21.6638C9.13455 21.9034 9 22.2283 9 22.5672C9 22.906 9.13455 23.2309 9.37406 23.4705L9.37423 23.4707L12.5233 26.6197C12.5241 26.6206 12.525 26.6215 12.5259 26.6223C12.7523 26.8495 13.056 26.9831 13.3765 26.9965C13.6982 27.0099 14.0132 26.9013 14.2582 26.6923L14.2607 26.6901C14.7073 26.3066 15.2823 26.1059 15.8705 26.1282C16.4588 26.1505 17.0169 26.3941 17.4332 26.8104C17.8494 27.2266 18.0931 27.7848 18.1154 28.373C18.1377 28.9613 17.937 29.5362 17.5535 29.9828L17.5513 29.9854C17.3423 30.2304 17.2336 30.5453 17.2471 30.8671C17.2605 31.1878 17.3943 31.4918 17.6218 31.7183C17.6225 31.7189 17.6232 31.7196 17.6238 31.7203L20.7729 34.8693L20.773 34.8695C21.0126 35.109 21.3376 35.2436 21.6764 35.2436C22.0152 35.2436 22.3402 35.109 22.5798 34.8695L22.5799 34.8693L35.4657 21.9843L35.4664 21.9836C35.7612 21.6882 35.9833 21.3284 36.1152 20.9326L36.1158 20.9307C36.1495 20.8289 36.2064 20.7364 36.2821 20.6605Z" stroke="white" stroke-width="2" stroke-miterlimit="10"/>
<mask id="path-2-outside-1_125_727" maskUnits="userSpaceOnUse" x="23.4279" y="7.80994" width="14" height="14" fill="black">
<rect fill="white" x="23.4279" y="7.80994" width="14" height="14"/>
<path d="M25.6071 9.98923L24.4279 8.80994ZM28.7515 13.1335L27.965 12.3478ZM31.8958 16.2786L31.11 15.4921ZM35.4336 19.8157L34.2543 18.6364Z"/>
</mask>
<path d="M24.9 10.6963C25.2906 11.0869 25.9237 11.0869 26.3143 10.6963C26.7048 10.3058 26.7048 9.67265 26.3143 9.28212L24.9 10.6963ZM25.135 8.10283C24.7444 7.71231 24.1113 7.71231 23.7207 8.10283C23.3302 8.49335 23.3302 9.12652 23.7207 9.51704L25.135 8.10283ZM28.0447 13.841C28.4354 14.2313 29.0685 14.231 29.4589 13.8403C29.8492 13.4496 29.8489 12.8165 29.4582 12.4261L28.0447 13.841ZM28.6718 11.6404C28.2811 11.25 27.6479 11.2503 27.2576 11.641C26.8672 12.0317 26.8675 12.6649 27.2582 13.0552L28.6718 11.6404ZM31.1883 16.9853C31.5787 17.376 32.2118 17.3763 32.6025 16.986C32.9932 16.5956 32.9935 15.9625 32.6032 15.5718L31.1883 16.9853ZM31.8175 14.7853C31.4271 14.3946 30.794 14.3943 30.4033 14.7847C30.0126 15.175 30.0123 15.8082 30.4026 16.1989L31.8175 14.7853ZM34.7265 20.5228C35.1171 20.9133 35.7502 20.9133 36.1407 20.5228C36.5313 20.1323 36.5313 19.4991 36.1407 19.1086L34.7265 20.5228ZM34.9614 17.9293C34.5709 17.5388 33.9378 17.5388 33.5472 17.9293C33.1567 18.3198 33.1567 18.953 33.5472 19.3435L34.9614 17.9293ZM26.3143 9.28212L25.135 8.10283L23.7207 9.51704L24.9 10.6963L26.3143 9.28212ZM29.4582 12.4261L28.6718 11.6404L27.2582 13.0552L28.0447 13.841L29.4582 12.4261ZM32.6032 15.5718L31.8175 14.7853L30.4026 16.1989L31.1883 16.9853L32.6032 15.5718ZM36.1407 19.1086L34.9614 17.9293L33.5472 19.3435L34.7265 20.5228L36.1407 19.1086Z" fill="white" mask="url(#path-2-outside-1_125_727)"/>
<path d="M8.246 43.704H4.606V53H3.892V43.704H0.252V43.06H8.246V43.704ZM9.58223 53V45.72H10.2822V53H9.58223ZM9.58223 44.068V42.78H10.2822V44.068H9.58223ZM15.5747 53.14C15.0707 53.14 14.5993 53.042 14.1607 52.846C13.722 52.6407 13.3393 52.3653 13.0127 52.02C12.686 51.6653 12.4293 51.2593 12.2427 50.802C12.0653 50.3447 11.9767 49.8547 11.9767 49.332C11.9767 48.632 12.1307 48.002 12.4387 47.442C12.7467 46.882 13.1713 46.434 13.7127 46.098C14.254 45.762 14.87 45.594 15.5607 45.594C16.2233 45.594 16.8067 45.748 17.3107 46.056C17.8147 46.3547 18.1927 46.7653 18.4447 47.288L17.7587 47.512C17.544 47.1107 17.236 46.798 16.8347 46.574C16.4427 46.3407 16.0087 46.224 15.5327 46.224C15.0007 46.224 14.52 46.3593 14.0907 46.63C13.6613 46.9007 13.316 47.274 13.0547 47.75C12.8027 48.2167 12.6767 48.744 12.6767 49.332C12.6767 49.9107 12.8073 50.4427 13.0687 50.928C13.33 51.4133 13.6753 51.8007 14.1047 52.09C14.5433 52.37 15.024 52.51 15.5467 52.51C15.8827 52.51 16.2093 52.4493 16.5267 52.328C16.8533 52.1973 17.1333 52.0293 17.3667 51.824C17.6093 51.6187 17.768 51.3993 17.8427 51.166L18.5287 51.362C18.4073 51.7073 18.1973 52.0153 17.8987 52.286C17.6 52.5473 17.25 52.7573 16.8487 52.916C16.4567 53.0653 16.032 53.14 15.5747 53.14ZM25.3736 53L22.5316 49.108L20.8096 50.69V53H20.1096V42.78H20.8096V49.906L25.2476 45.734H26.0456L23.0076 48.688L26.1436 53H25.3736ZM30.1352 53.14C29.6219 53.14 29.1459 53.042 28.7072 52.846C28.2686 52.6407 27.8859 52.3653 27.5592 52.02C27.2419 51.6653 26.9899 51.2593 26.8032 50.802C26.6259 50.3353 26.5372 49.8453 26.5372 49.332C26.5372 48.6413 26.6912 48.016 26.9992 47.456C27.3072 46.896 27.7319 46.448 28.2732 46.112C28.8146 45.7667 29.4212 45.594 30.0932 45.594C30.7839 45.594 31.3952 45.7667 31.9272 46.112C32.4592 46.4573 32.8792 46.9147 33.1872 47.484C33.5046 48.044 33.6632 48.66 33.6632 49.332C33.6632 49.388 33.6632 49.444 33.6632 49.5C33.6632 49.556 33.6586 49.6027 33.6492 49.64H27.2652C27.3026 50.1907 27.4566 50.69 27.7272 51.138C27.9979 51.586 28.3432 51.9407 28.7632 52.202C29.1926 52.454 29.6592 52.58 30.1632 52.58C30.6672 52.58 31.1432 52.4493 31.5912 52.188C32.0392 51.9267 32.3519 51.5907 32.5292 51.18L33.1452 51.348C33.0052 51.6933 32.7812 52.0013 32.4732 52.272C32.1746 52.5427 31.8199 52.7573 31.4092 52.916C31.0079 53.0653 30.5832 53.14 30.1352 53.14ZM27.2372 49.094H32.9912C32.9539 48.5247 32.8046 48.0207 32.5432 47.582C32.2819 47.1433 31.9366 46.798 31.5072 46.546C31.0872 46.294 30.6206 46.168 30.1072 46.168C29.5939 46.168 29.1272 46.294 28.7072 46.546C28.2872 46.798 27.9466 47.1433 27.6852 47.582C27.4239 48.0207 27.2746 48.5247 27.2372 49.094ZM38.3966 52.65C38.35 52.6687 38.2566 52.7153 38.1166 52.79C37.9766 52.8647 37.7993 52.9347 37.5846 53C37.37 53.056 37.132 53.084 36.8706 53.084C36.6186 53.084 36.3806 53.0373 36.1566 52.944C35.942 52.8413 35.7693 52.692 35.6386 52.496C35.508 52.3 35.4426 52.062 35.4426 51.782V46.294H34.4206V45.72H35.4426V43.228H36.1426V45.72H37.8366V46.294H36.1426V51.614C36.1613 51.8847 36.2593 52.09 36.4366 52.23C36.614 52.3607 36.8193 52.426 37.0526 52.426C37.342 52.426 37.594 52.3793 37.8086 52.286C38.0233 52.1833 38.1493 52.118 38.1866 52.09L38.3966 52.65ZM39.185 48.17C39.185 47.218 39.3717 46.294 39.745 45.398C40.1277 44.502 40.5803 43.6107 41.103 42.724L41.649 43.004C41.453 43.3027 41.2477 43.662 41.033 44.082C40.8183 44.4927 40.6223 44.936 40.445 45.412C40.2677 45.8787 40.123 46.3547 40.011 46.84C39.899 47.316 39.843 47.7733 39.843 48.212C39.843 48.9307 40.0017 49.724 40.319 50.592C40.6363 51.46 41.0797 52.314 41.649 53.154L41.117 53.462C40.7157 52.874 40.3703 52.286 40.081 51.698C39.801 51.1007 39.5817 50.508 39.423 49.92C39.2643 49.3227 39.185 48.7393 39.185 48.17ZM45.511 53.14C44.9324 53.14 44.3957 53.042 43.901 52.846C43.4064 52.65 42.9724 52.3513 42.599 51.95L42.921 51.46C43.3224 51.8427 43.7284 52.1227 44.139 52.3C44.5497 52.468 44.9977 52.552 45.483 52.552C46.1084 52.552 46.6124 52.4213 46.995 52.16C47.387 51.8987 47.583 51.5347 47.583 51.068C47.583 50.7507 47.4897 50.508 47.303 50.34C47.1257 50.1627 46.8644 50.0227 46.519 49.92C46.183 49.808 45.7724 49.6913 45.287 49.57C44.7924 49.4393 44.3724 49.304 44.027 49.164C43.691 49.024 43.439 48.842 43.271 48.618C43.103 48.394 43.019 48.0907 43.019 47.708C43.019 47.232 43.1357 46.84 43.369 46.532C43.6117 46.2147 43.9337 45.9813 44.335 45.832C44.7457 45.6733 45.1984 45.594 45.693 45.594C46.2624 45.594 46.757 45.6873 47.177 45.874C47.6064 46.0607 47.933 46.308 48.157 46.616L47.779 47.064C47.5457 46.7653 47.2424 46.546 46.869 46.406C46.4957 46.2567 46.085 46.182 45.637 46.182C45.301 46.182 44.9837 46.2287 44.685 46.322C44.3864 46.4153 44.1437 46.5693 43.957 46.784C43.7797 46.9893 43.691 47.2693 43.691 47.624C43.691 47.904 43.7564 48.1233 43.887 48.282C44.027 48.4407 44.2324 48.5713 44.503 48.674C44.7737 48.7673 45.1097 48.87 45.511 48.982C46.0804 49.122 46.5704 49.2667 46.981 49.416C47.3917 49.5653 47.709 49.7613 47.933 50.004C48.157 50.2373 48.269 50.5687 48.269 50.998C48.269 51.6607 48.017 52.1833 47.513 52.566C47.009 52.9487 46.3417 53.14 45.511 53.14ZM51.7483 48.17C51.7483 48.7393 51.6689 49.3227 51.5103 49.92C51.3609 50.508 51.1416 51.1007 50.8523 51.698C50.5629 52.286 50.2223 52.874 49.8303 53.462L49.2983 53.154C49.8583 52.314 50.2969 51.46 50.6143 50.592C50.9316 49.724 51.0903 48.9307 51.0903 48.212C51.0903 47.7733 51.0343 47.316 50.9223 46.84C50.8196 46.3547 50.6749 45.8787 50.4883 45.412C50.3109 44.936 50.1149 44.4927 49.9003 44.082C49.6949 43.662 49.4896 43.3027 49.2843 43.004L49.8303 42.724C50.3623 43.6107 50.8149 44.502 51.1883 45.398C51.5616 46.294 51.7483 47.218 51.7483 48.17Z" fill="white"/>
</svg>
