<svg width="40" height="52" viewBox="0 0 40 52" fill="none" xmlns="http://www.w3.org/2000/svg">
<path d="M36.9419 17.0581L21.8084 1.43841L20.8411 0.470332C20.6207 0.251213 20.3227 0.128235 20.012 0.128235C19.7013 0.128235 19.4033 0.251213 19.1829 0.470332L2.49582 17.6071C2.19894 17.9119 2.12753 18.3713 2.31784 18.7519L2.82152 19.7593C2.96652 20.0493 3.26294 20.2325 3.58718 20.2325V20.2325C3.58718 20.2325 3.88365 20.2325 5.1983 20.2325H7.31454V31.8718H32.7094V20.2325H34.5516C34.9438 20.2325 35.756 20.2325 36.3243 20.2325C36.703 20.2325 37.0489 20.0185 37.2183 19.6797L37.6776 18.7611C37.8701 18.376 37.7947 17.911 37.4902 17.6066C37.3136 17.43 37.1162 17.2326 36.9419 17.0581ZM22.1035 29.7556H17.9206V21.2906H22.1035V29.7556ZM30.5931 18.1163L30.5931 29.7556H24.2444V20.9195C24.2444 20.0935 23.8252 19.4244 22.9998 19.4244H17.0242C16.1988 19.4244 15.7795 20.0935 15.7795 20.9195V29.7556H9.43078V18.1163L5.1983 18.1163L20.012 2.77353L27.9478 10.7094L34.8256 18.1163L30.5931 18.1163Z" fill="#00F0E4"/>
<path d="M20 2.12823L4.5 18.1282L8.5 19.1282V30.6282H16.5L17 20.6282L24 19.6282V30.1282L31 30.6282L31.5 19.1282L35.5 18.1282L20 2.12823Z" fill="#00F0E4"/>
<path d="M9.184 39.06V49H7.924V44.478H2.45V49H1.19V39.06H2.45V43.358H7.924V39.06H9.184ZM14.4399 49.14C13.8892 49.14 13.3899 49.042 12.9419 48.846C12.4939 48.6407 12.1066 48.3653 11.7799 48.02C11.4532 47.6653 11.2012 47.2593 11.0239 46.802C10.8466 46.3447 10.7579 45.864 10.7579 45.36C10.7579 44.8467 10.8466 44.3613 11.0239 43.904C11.2012 43.4467 11.4532 43.0453 11.7799 42.7C12.1066 42.3453 12.4939 42.07 12.9419 41.874C13.3992 41.6687 13.8986 41.566 14.4399 41.566C14.9906 41.566 15.4899 41.6687 15.9379 41.874C16.3859 42.07 16.7732 42.3453 17.0999 42.7C17.4359 43.0453 17.6926 43.4467 17.8699 43.904C18.0472 44.3613 18.1359 44.8467 18.1359 45.36C18.1359 45.864 18.0472 46.3447 17.8699 46.802C17.6926 47.2593 17.4406 47.6653 17.1139 48.02C16.7872 48.3653 16.3952 48.6407 15.9379 48.846C15.4899 49.042 14.9906 49.14 14.4399 49.14ZM12.0179 45.374C12.0179 45.878 12.1252 46.3353 12.3399 46.746C12.5639 47.1567 12.8579 47.4833 13.2219 47.726C13.5859 47.9593 13.9919 48.076 14.4399 48.076C14.8879 48.076 15.2939 47.9547 15.6579 47.712C16.0312 47.4693 16.3252 47.1427 16.5399 46.732C16.7639 46.312 16.8759 45.85 16.8759 45.346C16.8759 44.842 16.7639 44.3847 16.5399 43.974C16.3252 43.5633 16.0312 43.2367 15.6579 42.994C15.2939 42.7513 14.8879 42.63 14.4399 42.63C13.9919 42.63 13.5859 42.756 13.2219 43.008C12.8579 43.2507 12.5639 43.5773 12.3399 43.988C12.1252 44.3987 12.0179 44.8607 12.0179 45.374ZM30.6468 49H29.4148V44.912C29.4148 44.1467 29.2888 43.582 29.0368 43.218C28.7941 42.854 28.4301 42.672 27.9448 42.672C27.4501 42.672 27.0021 42.854 26.6008 43.218C26.1994 43.5727 25.9148 44.0347 25.7468 44.604V49H24.5148V44.912C24.5148 44.1373 24.3934 43.5727 24.1508 43.218C23.9081 42.854 23.5441 42.672 23.0588 42.672C22.5734 42.672 22.1254 42.8493 21.7148 43.204C21.3134 43.5493 21.0288 44.0113 20.8608 44.59V49H19.6288V41.692H20.7488V43.26C21.0474 42.7187 21.4348 42.3033 21.9108 42.014C22.3868 41.7153 22.9234 41.566 23.5208 41.566C24.1274 41.566 24.6128 41.734 24.9768 42.07C25.3408 42.3967 25.5648 42.8213 25.6488 43.344C25.9754 42.7653 26.3721 42.3267 26.8388 42.028C27.3054 41.72 27.8374 41.566 28.4348 41.566C28.8548 41.566 29.2048 41.6453 29.4848 41.804C29.7741 41.9533 30.0028 42.168 30.1708 42.448C30.3388 42.7187 30.4601 43.0407 30.5348 43.414C30.6094 43.7873 30.6468 44.1933 30.6468 44.632V49ZM35.7964 49.14C35.2457 49.14 34.7417 49.042 34.2844 48.846C33.8364 48.6407 33.4444 48.3653 33.1084 48.02C32.7817 47.6653 32.525 47.2593 32.3384 46.802C32.161 46.3447 32.0724 45.8593 32.0724 45.346C32.0724 44.6553 32.231 44.0253 32.5484 43.456C32.8657 42.8867 33.3044 42.4293 33.8644 42.084C34.4337 41.7387 35.0824 41.566 35.8104 41.566C36.5477 41.566 37.187 41.7433 37.7284 42.098C38.279 42.4433 38.7037 42.9007 39.0024 43.47C39.3104 44.03 39.4644 44.6367 39.4644 45.29C39.4644 45.3833 39.4597 45.4767 39.4504 45.57C39.4504 45.654 39.4457 45.7193 39.4364 45.766H33.3744C33.4117 46.242 33.5424 46.6667 33.7664 47.04C33.9997 47.404 34.2984 47.6933 34.6624 47.908C35.0264 48.1133 35.4184 48.216 35.8384 48.216C36.2864 48.216 36.7064 48.104 37.0984 47.88C37.4997 47.656 37.775 47.362 37.9244 46.998L38.9884 47.292C38.8297 47.6467 38.5917 47.964 38.2744 48.244C37.9664 48.524 37.5977 48.7433 37.1684 48.902C36.7484 49.0607 36.291 49.14 35.7964 49.14ZM33.3324 44.912H38.3164C38.279 44.436 38.1437 44.016 37.9104 43.652C37.677 43.288 37.3784 43.0033 37.0144 42.798C36.6504 42.5927 36.249 42.49 35.8104 42.49C35.381 42.49 34.9844 42.5927 34.6204 42.798C34.2564 43.0033 33.9577 43.288 33.7244 43.652C33.5004 44.016 33.3697 44.436 33.3324 44.912Z" fill="#00F0E4"/>
</svg>
