<svg width="40" height="53" viewBox="0 0 40 53" fill="none" xmlns="http://www.w3.org/2000/svg">
<path fill-rule="evenodd" clip-rule="evenodd" d="M36 26.8718C36 21.5518 25.34 18.8718 20 18.8718C14.66 18.8718 4 21.5518 4 26.8718V32.8718H36V26.8718ZM25.6569 3.21494C24.1566 1.71465 22.1217 0.871796 20 0.871796C17.8783 0.871796 15.8434 1.71465 14.3431 3.21494C12.8429 4.71523 12 6.75006 12 8.8718C12 10.9935 12.8429 13.0284 14.3431 14.5287C15.8434 16.0289 17.8783 16.8718 20 16.8718C22.1217 16.8718 24.1566 16.0289 25.6569 14.5287C27.1571 13.0284 28 10.9935 28 8.8718C28 6.75006 27.1571 4.71523 25.6569 3.21494ZM6 25.8718C6 24.5918 14.3431 20.3718 20 20.8718C25 20.3718 34 24.5918 34 25.8718V30.8718H6V25.8718ZM20 14.8718C23.3137 14.8718 26 12.1855 26 8.8718C26 5.55809 23.3137 2.8718 20 2.8718C16.6863 2.8718 14 5.55809 14 8.8718C14 12.1855 16.6863 14.8718 20 14.8718Z" fill="#FDFDFD"/>
<path d="M1.302 50V40.06H5.39C5.81 40.06 6.19267 40.1487 6.538 40.326C6.89267 40.5033 7.20067 40.7413 7.462 41.04C7.72333 41.3293 7.924 41.656 8.064 42.02C8.21333 42.384 8.288 42.7573 8.288 43.14C8.288 43.672 8.16667 44.176 7.924 44.652C7.69067 45.1187 7.364 45.5013 6.944 45.8C6.53333 46.0987 6.04333 46.248 5.474 46.248H2.016V50H1.302ZM2.016 45.59H5.446C5.88467 45.59 6.26267 45.4733 6.58 45.24C6.89733 45.0067 7.14 44.7033 7.308 44.33C7.476 43.9567 7.56 43.56 7.56 43.14C7.56 42.7013 7.45733 42.3 7.252 41.936C7.056 41.5627 6.79 41.264 6.454 41.04C6.12733 40.816 5.76333 40.704 5.362 40.704H2.016V45.59ZM13.2313 43.35C12.578 43.3687 12.004 43.5647 11.5093 43.938C11.024 44.302 10.6833 44.806 10.4873 45.45V50H9.78731V42.72H10.4593V44.512C10.7113 43.9987 11.0473 43.5833 11.4673 43.266C11.8873 42.9393 12.3306 42.7527 12.7973 42.706C12.8906 42.6967 12.9746 42.692 13.0493 42.692C13.124 42.692 13.1846 42.692 13.2313 42.692V43.35ZM17.3237 50.14C16.8104 50.14 16.3344 50.042 15.8957 49.846C15.4664 49.65 15.093 49.3793 14.7757 49.034C14.4584 48.6793 14.211 48.2733 14.0337 47.816C13.8564 47.3587 13.7677 46.878 13.7677 46.374C13.7677 45.8607 13.8564 45.38 14.0337 44.932C14.211 44.4747 14.4584 44.0733 14.7757 43.728C15.1024 43.3733 15.4804 43.098 15.9097 42.902C16.3484 42.6967 16.8197 42.594 17.3237 42.594C17.8277 42.594 18.2944 42.6967 18.7237 42.902C19.153 43.098 19.531 43.3733 19.8577 43.728C20.1844 44.0733 20.4364 44.4747 20.6137 44.932C20.791 45.38 20.8797 45.8607 20.8797 46.374C20.8797 46.878 20.791 47.3587 20.6137 47.816C20.4364 48.2733 20.1844 48.6793 19.8577 49.034C19.5404 49.3793 19.1624 49.65 18.7237 49.846C18.2944 50.042 17.8277 50.14 17.3237 50.14ZM14.4677 46.402C14.4677 46.9713 14.5937 47.494 14.8457 47.97C15.107 48.4367 15.4524 48.81 15.8817 49.09C16.311 49.37 16.787 49.51 17.3097 49.51C17.8324 49.51 18.3084 49.37 18.7377 49.09C19.1764 48.8007 19.5217 48.418 19.7737 47.942C20.035 47.4567 20.1657 46.9293 20.1657 46.36C20.1657 45.7907 20.035 45.268 19.7737 44.792C19.5217 44.316 19.1764 43.938 18.7377 43.658C18.3084 43.3687 17.837 43.224 17.3237 43.224C16.801 43.224 16.325 43.3687 15.8957 43.658C15.4664 43.9473 15.121 44.33 14.8597 44.806C14.5984 45.282 14.4677 45.814 14.4677 46.402ZM22.7695 43.294H21.7475V42.72H22.7695V42.482C22.7695 42.1553 22.8161 41.8287 22.9095 41.502C23.0028 41.166 23.1475 40.858 23.3435 40.578C23.5395 40.298 23.7915 40.074 24.0995 39.906C24.4168 39.7287 24.7948 39.64 25.2335 39.64C25.5695 39.64 25.8728 39.6773 26.1435 39.752C26.4141 39.8267 26.6381 39.9107 26.8155 40.004C26.9928 40.0973 27.1141 40.172 27.1795 40.228L26.8295 40.718C26.6988 40.606 26.4935 40.5033 26.2135 40.41C25.9335 40.3167 25.6161 40.27 25.2615 40.27C24.8415 40.27 24.4961 40.382 24.2255 40.606C23.9641 40.83 23.7728 41.11 23.6515 41.446C23.5301 41.782 23.4695 42.1227 23.4695 42.468V42.72H27.0395V50H26.3395V43.294H23.4695V50H22.7695V43.294ZM29.2847 39.78H29.9987V48.558C29.9987 48.894 30.0687 49.1273 30.2087 49.258C30.3487 49.3793 30.5307 49.44 30.7547 49.44C30.9041 49.44 31.0581 49.426 31.2167 49.398C31.3754 49.37 31.5154 49.3327 31.6367 49.286L31.7767 49.86C31.6181 49.916 31.4221 49.9673 31.1887 50.014C30.9554 50.0607 30.7547 50.084 30.5867 50.084C30.1947 50.084 29.8774 49.9673 29.6347 49.734C29.4014 49.4913 29.2847 49.1693 29.2847 48.768V39.78ZM35.9458 50.14C35.4324 50.14 34.9564 50.042 34.5178 49.846C34.0791 49.6407 33.6964 49.3653 33.3698 49.02C33.0524 48.6653 32.8004 48.2593 32.6138 47.802C32.4364 47.3353 32.3478 46.8453 32.3478 46.332C32.3478 45.6413 32.5018 45.016 32.8098 44.456C33.1178 43.896 33.5424 43.448 34.0838 43.112C34.6251 42.7667 35.2318 42.594 35.9038 42.594C36.5944 42.594 37.2058 42.7667 37.7378 43.112C38.2698 43.4573 38.6898 43.9147 38.9978 44.484C39.3151 45.044 39.4738 45.66 39.4738 46.332C39.4738 46.388 39.4738 46.444 39.4738 46.5C39.4738 46.556 39.4691 46.6027 39.4598 46.64H33.0758C33.1131 47.1907 33.2671 47.69 33.5378 48.138C33.8084 48.586 34.1538 48.9407 34.5738 49.202C35.0031 49.454 35.4698 49.58 35.9738 49.58C36.4778 49.58 36.9538 49.4493 37.4018 49.188C37.8498 48.9267 38.1624 48.5907 38.3398 48.18L38.9558 48.348C38.8158 48.6933 38.5918 49.0013 38.2838 49.272C37.9851 49.5427 37.6304 49.7573 37.2198 49.916C36.8184 50.0653 36.3938 50.14 35.9458 50.14ZM33.0478 46.094H38.8018C38.7644 45.5247 38.6151 45.0207 38.3538 44.582C38.0924 44.1433 37.7471 43.798 37.3178 43.546C36.8978 43.294 36.4311 43.168 35.9178 43.168C35.4044 43.168 34.9378 43.294 34.5178 43.546C34.0978 43.798 33.7571 44.1433 33.4958 44.582C33.2344 45.0207 33.0851 45.5247 33.0478 46.094Z" fill="white"/>
</svg>
