<svg width="55" height="56" viewBox="0 0 55 56" fill="none" xmlns="http://www.w3.org/2000/svg">
<path d="M36.2821 20.6605C36.3577 20.5847 36.4499 20.5274 36.5514 20.4934C36.9471 20.3614 37.3066 20.1392 37.6015 19.8442C37.6015 19.8442 37.6015 19.8442 37.6015 19.8442L42.6258 14.8199L42.6259 14.8198C42.8654 14.5801 43 14.2552 43 13.9164C43 13.5776 42.8654 13.2526 42.6259 13.013L42.6258 13.0129L39.4767 9.86382C39.476 9.8631 39.4753 9.86239 39.4746 9.86167C39.2481 9.63426 38.9442 9.5005 38.6235 9.48709C38.3018 9.47363 37.9868 9.58229 37.7418 9.79125L37.7386 9.79403C37.2925 10.1778 36.7179 10.3791 36.1299 10.3576C35.5419 10.3361 34.9838 10.0935 34.567 9.67837C34.1515 9.26226 33.9083 8.70473 33.8858 8.1171C33.8634 7.529 34.0638 6.95411 34.4469 6.50739L34.4487 6.5053C34.6577 6.26029 34.7664 5.94535 34.7529 5.62362C34.7395 5.30301 34.6058 4.99926 34.3786 4.77281C34.3778 4.77201 34.377 4.77121 34.3762 4.77041L31.2275 1.61819L31.227 1.61763C30.9873 1.37811 30.6624 1.24356 30.3236 1.24356C29.9848 1.24356 29.6599 1.37811 29.4202 1.61762L29.4201 1.61779L24.3958 6.64201C24.3958 6.64204 24.3958 6.64207 24.3957 6.64211C24.1005 6.93726 23.8782 7.29714 23.7462 7.69321L23.7457 7.69493C23.712 7.7967 23.655 7.88923 23.5793 7.96516C23.5038 8.04099 23.4116 8.09819 23.3101 8.13224C22.9146 8.26419 22.5551 8.48618 22.26 8.78072L22.2594 8.78132L9.37431 21.6635L9.37406 21.6638C9.13455 21.9034 9 22.2283 9 22.5672C9 22.906 9.13455 23.2309 9.37406 23.4705L9.37423 23.4707L12.5233 26.6197C12.5241 26.6206 12.525 26.6215 12.5259 26.6223C12.7523 26.8495 13.056 26.9831 13.3765 26.9965C13.6982 27.0099 14.0132 26.9013 14.2582 26.6923L14.2607 26.6901C14.7073 26.3066 15.2823 26.1059 15.8705 26.1282C16.4588 26.1505 17.0169 26.3941 17.4332 26.8104C17.8494 27.2266 18.0931 27.7848 18.1154 28.373C18.1377 28.9613 17.937 29.5362 17.5535 29.9828L17.5513 29.9854C17.3423 30.2304 17.2336 30.5453 17.2471 30.8671C17.2605 31.1878 17.3943 31.4918 17.6218 31.7183C17.6225 31.7189 17.6232 31.7196 17.6238 31.7203L20.7729 34.8693L20.773 34.8695C21.0126 35.109 21.3376 35.2436 21.6764 35.2436C22.0152 35.2436 22.3402 35.109 22.5798 34.8695L22.5799 34.8693L35.4657 21.9843L35.4664 21.9836C35.7612 21.6882 35.9833 21.3284 36.1152 20.9326L36.1158 20.9307C36.1495 20.8289 36.2064 20.7364 36.2821 20.6605Z" stroke="#00F0E4" stroke-width="2" stroke-miterlimit="10"/>
<path d="M30 1L9.5 22L9 23L13 27L16.5 26L18 28.5L17.5 32L22 35L43.5 14L38.5 9.5L36 10.5L34 10V7.5L35 6L30 1Z" fill="#00F0E4"/>
<mask id="path-3-outside-1_125_727" maskUnits="userSpaceOnUse" x="23.4279" y="7.80994" width="14" height="14" fill="black">
<rect fill="white" x="23.4279" y="7.80994" width="14" height="14"/>
<path d="M25.6071 9.98923L24.4279 8.80994ZM28.7515 13.1335L27.965 12.3478ZM31.8958 16.2786L31.11 15.4921ZM35.4336 19.8157L34.2543 18.6364Z"/>
</mask>
<path d="M24.9 10.6963C25.2906 11.0869 25.9237 11.0869 26.3143 10.6963C26.7048 10.3058 26.7048 9.67265 26.3143 9.28212L24.9 10.6963ZM25.135 8.10283C24.7444 7.71231 24.1113 7.71231 23.7207 8.10283C23.3302 8.49335 23.3302 9.12652 23.7207 9.51704L25.135 8.10283ZM28.0447 13.841C28.4354 14.2313 29.0685 14.231 29.4589 13.8403C29.8492 13.4496 29.8489 12.8165 29.4582 12.4261L28.0447 13.841ZM28.6718 11.6404C28.2811 11.25 27.6479 11.2503 27.2576 11.641C26.8672 12.0317 26.8675 12.6649 27.2582 13.0552L28.6718 11.6404ZM31.1883 16.9853C31.5787 17.376 32.2118 17.3763 32.6025 16.986C32.9932 16.5956 32.9935 15.9625 32.6032 15.5718L31.1883 16.9853ZM31.8175 14.7853C31.4271 14.3946 30.794 14.3943 30.4033 14.7847C30.0126 15.175 30.0123 15.8082 30.4026 16.1989L31.8175 14.7853ZM34.7265 20.5228C35.1171 20.9133 35.7502 20.9133 36.1407 20.5228C36.5313 20.1323 36.5313 19.4991 36.1407 19.1086L34.7265 20.5228ZM34.9614 17.9293C34.5709 17.5388 33.9378 17.5388 33.5472 17.9293C33.1567 18.3198 33.1567 18.953 33.5472 19.3435L34.9614 17.9293ZM26.3143 9.28212L25.135 8.10283L23.7207 9.51704L24.9 10.6963L26.3143 9.28212ZM29.4582 12.4261L28.6718 11.6404L27.2582 13.0552L28.0447 13.841L29.4582 12.4261ZM32.6032 15.5718L31.8175 14.7853L30.4026 16.1989L31.1883 16.9853L32.6032 15.5718ZM36.1407 19.1086L34.9614 17.9293L33.5472 19.3435L34.7265 20.5228L36.1407 19.1086Z" fill="black" mask="url(#path-3-outside-1_125_727)"/>
<path d="M8.358 44.18H4.928V53H3.668V44.18H0.238V43.06H8.358V44.18ZM9.59361 53V45.692H10.8256V53H9.59361ZM9.59361 44.32V42.78H10.8256V44.32H9.59361ZM16.0542 53.14C15.5035 53.14 14.9995 53.042 14.5422 52.846C14.0942 52.6407 13.7022 52.3607 13.3662 52.006C13.0395 51.6513 12.7828 51.2453 12.5962 50.788C12.4188 50.3307 12.3302 49.8453 12.3302 49.332C12.3302 48.6413 12.4842 48.0113 12.7922 47.442C13.1002 46.8727 13.5342 46.42 14.0942 46.084C14.6542 45.7387 15.3028 45.566 16.0402 45.566C16.7588 45.566 17.3842 45.7293 17.9162 46.056C18.4575 46.3733 18.8588 46.8027 19.1202 47.344L17.9162 47.722C17.7295 47.3767 17.4682 47.1107 17.1322 46.924C16.7962 46.728 16.4228 46.63 16.0122 46.63C15.5642 46.63 15.1535 46.7467 14.7802 46.98C14.4162 47.2133 14.1268 47.5353 13.9122 47.946C13.6975 48.3473 13.5902 48.8093 13.5902 49.332C13.5902 49.8453 13.6975 50.312 13.9122 50.732C14.1362 51.1427 14.4302 51.4693 14.7942 51.712C15.1675 51.9547 15.5782 52.076 16.0262 52.076C16.3155 52.076 16.5908 52.0247 16.8522 51.922C17.1228 51.8193 17.3562 51.684 17.5522 51.516C17.7575 51.3387 17.8975 51.1473 17.9722 50.942L19.1762 51.306C19.0268 51.6607 18.7982 51.978 18.4902 52.258C18.1915 52.5287 17.8322 52.7433 17.4122 52.902C17.0015 53.0607 16.5488 53.14 16.0542 53.14ZM25.7241 53L23.1901 49.444L21.8041 50.746V53H20.5721V42.78H21.8041V49.458L25.5841 45.706H26.9141L24.0021 48.73L27.0541 53H25.7241ZM30.9702 53.14C30.4195 53.14 29.9155 53.042 29.4582 52.846C29.0102 52.6407 28.6182 52.3653 28.2822 52.02C27.9555 51.6653 27.6989 51.2593 27.5122 50.802C27.3349 50.3447 27.2462 49.8593 27.2462 49.346C27.2462 48.6553 27.4049 48.0253 27.7222 47.456C28.0395 46.8867 28.4782 46.4293 29.0382 46.084C29.6075 45.7387 30.2562 45.566 30.9842 45.566C31.7215 45.566 32.3609 45.7433 32.9022 46.098C33.4529 46.4433 33.8775 46.9007 34.1762 47.47C34.4842 48.03 34.6382 48.6367 34.6382 49.29C34.6382 49.3833 34.6335 49.4767 34.6242 49.57C34.6242 49.654 34.6195 49.7193 34.6102 49.766H28.5482C28.5855 50.242 28.7162 50.6667 28.9402 51.04C29.1735 51.404 29.4722 51.6933 29.8362 51.908C30.2002 52.1133 30.5922 52.216 31.0122 52.216C31.4602 52.216 31.8802 52.104 32.2722 51.88C32.6735 51.656 32.9489 51.362 33.0982 50.998L34.1622 51.292C34.0035 51.6467 33.7655 51.964 33.4482 52.244C33.1402 52.524 32.7715 52.7433 32.3422 52.902C31.9222 53.0607 31.4649 53.14 30.9702 53.14ZM28.5062 48.912H33.4902C33.4529 48.436 33.3175 48.016 33.0842 47.652C32.8509 47.288 32.5522 47.0033 32.1882 46.798C31.8242 46.5927 31.4229 46.49 30.9842 46.49C30.5549 46.49 30.1582 46.5927 29.7942 46.798C29.4302 47.0033 29.1315 47.288 28.8982 47.652C28.6742 48.016 28.5435 48.436 28.5062 48.912ZM39.7193 52.636C39.6166 52.6827 39.4766 52.7433 39.2993 52.818C39.122 52.8927 38.9166 52.958 38.6833 53.014C38.45 53.07 38.2026 53.098 37.9413 53.098C37.6426 53.098 37.3673 53.0467 37.1153 52.944C36.8633 52.832 36.6626 52.664 36.5133 52.44C36.364 52.2067 36.2893 51.9173 36.2893 51.572V46.658H35.2953V45.692H36.2893V43.256H37.5213V45.692H39.1593V46.658H37.5213V51.194C37.54 51.4553 37.6286 51.6513 37.7873 51.782C37.946 51.9033 38.1326 51.964 38.3473 51.964C38.59 51.964 38.814 51.922 39.0193 51.838C39.2246 51.754 39.36 51.6933 39.4253 51.656L39.7193 52.636ZM40.4552 48.156C40.4552 47.204 40.6465 46.2707 41.0292 45.356C41.4212 44.4413 41.8925 43.5173 42.4432 42.584L43.3952 43.004C43.2179 43.2653 43.0265 43.5967 42.8212 43.998C42.6159 44.3993 42.4199 44.838 42.2332 45.314C42.0465 45.79 41.8925 46.2753 41.7712 46.77C41.6592 47.2647 41.6032 47.7407 41.6032 48.198C41.6032 48.9353 41.7619 49.7287 42.0792 50.578C42.3965 51.418 42.8259 52.2627 43.3672 53.112L42.4572 53.588C42.0652 53 41.7152 52.4073 41.4072 51.81C41.1085 51.2033 40.8752 50.592 40.7072 49.976C40.5392 49.36 40.4552 48.7533 40.4552 48.156ZM47.332 53.14C46.7254 53.14 46.156 53.042 45.624 52.846C45.092 52.6407 44.6347 52.3373 44.252 51.936L44.728 51.068C45.148 51.46 45.568 51.74 45.988 51.908C46.408 52.076 46.8374 52.16 47.276 52.16C47.78 52.16 48.1907 52.0667 48.508 51.88C48.8254 51.684 48.984 51.3993 48.984 51.026C48.984 50.7553 48.9 50.5547 48.732 50.424C48.5734 50.2933 48.3447 50.186 48.046 50.102C47.7474 50.0087 47.3927 49.906 46.982 49.794C46.478 49.6447 46.0534 49.486 45.708 49.318C45.3627 49.15 45.1014 48.94 44.924 48.688C44.7467 48.436 44.658 48.1187 44.658 47.736C44.658 47.2693 44.7794 46.8773 45.022 46.56C45.2647 46.2333 45.596 45.986 46.016 45.818C46.4454 45.65 46.9307 45.566 47.472 45.566C48.0134 45.566 48.5034 45.65 48.942 45.818C49.3807 45.986 49.7587 46.2333 50.076 46.56L49.516 47.414C49.2267 47.1153 48.9094 46.896 48.564 46.756C48.2187 46.6067 47.8314 46.532 47.402 46.532C47.15 46.532 46.9027 46.5647 46.66 46.63C46.4174 46.686 46.2167 46.7933 46.058 46.952C45.8994 47.1013 45.82 47.316 45.82 47.596C45.82 47.8293 45.8807 48.016 46.002 48.156C46.1327 48.2867 46.3194 48.3987 46.562 48.492C46.814 48.5853 47.1174 48.688 47.472 48.8C48.0227 48.9587 48.4987 49.1173 48.9 49.276C49.3107 49.4347 49.628 49.64 49.852 49.892C50.076 50.144 50.188 50.494 50.188 50.942C50.188 51.6327 49.9267 52.174 49.404 52.566C48.8814 52.9487 48.1907 53.14 47.332 53.14ZM54.042 48.156C54.042 48.7533 53.958 49.36 53.79 49.976C53.622 50.592 53.384 51.2033 53.076 51.81C52.7773 52.4073 52.432 53 52.04 53.588L51.13 53.112C51.6713 52.2627 52.1006 51.418 52.418 50.578C52.7353 49.7287 52.894 48.9353 52.894 48.198C52.894 47.7407 52.8333 47.2647 52.712 46.77C52.6 46.2753 52.4506 45.79 52.264 45.314C52.0773 44.838 51.8813 44.3993 51.676 43.998C51.4706 43.5967 51.2793 43.2653 51.102 43.004L52.054 42.584C52.6046 43.5173 53.0713 44.4413 53.454 45.356C53.846 46.2707 54.042 47.204 54.042 48.156Z" fill="#00F0E4"/>
</svg>
